# xmcd CD database file
# Copyright (C) 1993-1998 Ti Kan
# 
# Track frame offsets:
#     150
#     22597
#     41800
# 
# Disc length: 841 seconds
# 
# Revision: 1
# Processed by: cddbd v1.4b41PL1 Copyright (c) Steve Scherf et al.
# Submitted via: DiscPlay 4.0.4
# 
DISCID=17034703
DTITLE=Mariah Carey - Breakdown US promo
DYEAR=1900
DGENRE=
TTITLE0=Breakdown-The Mo' Thugs Remix
TTITLE1=Breakdown-Radio Edit
TTITLE2=Breakdown-Album Version
EXTD=
EXTT0=
EXTT1=
EXTT2=
PLAYORDER=
